<?xml version="1.0" encoding="UTF-8" standalone="no"?>
<!DOCTYPE svg PUBLIC "-//W3C//DTD SVG 1.1//EN" "http://www.w3.org/Graphics/SVG/1.1/DTD/svg11.dtd">
<svg version="1.1" xmlns="http://www.w3.org/2000/svg" xmlns:xlink="http://www.w3.org/1999/xlink" preserveAspectRatio="xMidYMid meet" viewBox="0 0 640 640" width="640" height="640"><defs><path d="M612.8 296.19C591.12 296.22 417.66 296.43 395.98 296.46C394.41 296.19 392.84 295.93 391.27 295.93C378.32 295.93 367.73 306.53 367.73 319.47C367.73 347.07 345.37 369.43 317.78 369.43C290.18 369.43 267.82 347.07 267.82 319.47C267.82 291.88 290.18 269.52 317.78 269.52C330.72 269.52 341.32 258.92 341.32 245.98C341.32 233.03 330.72 222.44 317.78 222.44C272.14 222.44 233.82 254.09 223.49 296.59C206.28 296.6 68.6 296.7 51.39 296.72C57.54 207.4 108.01 126.58 186.74 82.12C299.34 18.43 438.87 45.5 520.61 139.53C513.9 138.28 460.23 128.35 453.52 127.1C440.7 124.75 428.41 133.12 426.06 145.93C423.7 158.75 432.07 171.04 444.89 173.4C457.14 175.67 555.17 193.88 567.42 196.15C568.86 196.41 570.3 196.54 571.74 196.54C582.59 196.54 592.27 189.09 594.63 178.11C594.65 177.99 594.86 177.05 594.89 176.93C594.89 176.67 595.02 176.41 595.02 176.01C595.02 176 595.02 175.96 595.02 175.88C608.51 103.15 616.01 62.74 617.51 54.65C619.86 41.84 611.5 29.55 598.68 27.19C585.86 24.84 573.57 33.21 571.22 46.02C570 52.61 560.27 105.34 559.05 111.93C518.51 63.81 464.64 28.89 402.65 11.63C321.7 -10.86 236.7 -0.53 163.59 40.92C63.03 98.07 1.69 205.31 3.66 320.91C3.92 333.73 14.38 344.06 27.2 344.06C46.85 344.03 204.09 343.82 223.75 343.8C234.47 385.64 272.53 416.64 317.65 416.64C362.89 416.64 400.95 385.51 411.67 343.67C429.37 343.64 570.92 343.43 588.61 343.4C582.46 432.72 531.98 513.54 453.26 558C391.01 593.18 318.82 602.08 249.9 582.85C197.07 568.2 151.17 538.39 116.65 497.33C123.67 498.25 179.85 505.68 186.87 506.61C199.82 508.31 211.59 499.29 213.29 486.34C214.99 473.39 205.96 461.62 193.02 459.92C180.66 458.29 81.79 445.21 69.44 443.58C56.49 441.88 44.72 450.9 43.02 463.85C41.38 476.21 28.31 575.07 26.67 587.43C24.97 600.38 34 612.15 46.94 613.85C47.99 613.98 49.04 614.11 50.08 614.11C61.72 614.11 71.79 605.48 73.36 593.71C74.21 587.26 81.01 535.68 81.86 529.23C122.27 576.84 175.89 611.23 237.22 628.36C265.2 636.08 293.71 640 321.96 640C375.58 640 428.41 626.14 476.41 599.07C576.97 542.18 638.3 434.95 636.34 319.34C636.08 306.53 625.62 296.19 612.8 296.19Z" id="aBPFCASVL"></path></defs><g><g><g><use xlink:href="#aBPFCASVL" opacity="1" fill="#ffffff" fill-opacity="1"></use><g><use xlink:href="#aBPFCASVL" opacity="1" fill-opacity="0" stroke="#000000" stroke-width="1" stroke-opacity="0"></use></g></g></g></g></svg>